<svg width="29" height="23"  fill="none" xmlns="http://www.w3.org/2000/svg">
<path d="M24.06 9.72C23.116 4.547 18.6 0.625 13.157 0.625V4.625C15.0376 4.62765 16.8405 5.3759 18.1703 6.70571C19.5001 8.03552 20.2484 9.83837 20.251 11.719C20.2478 13.5991 19.4995 15.4013 18.1699 16.7306C16.8404 18.06 15.0381 18.8081 13.158 18.811V22.813C18.6 22.809 23.118 18.887 24.061 13.717H28.751V9.717H24.061L24.06 9.72ZM19.375 11.72C19.3766 10.2461 18.8544 8.81969 17.9016 7.69519C16.9488 6.57069 15.6275 5.82132 14.1734 5.58079C12.7193 5.34026 11.2271 5.62424 9.96297 6.38204C8.69886 7.13984 7.74514 8.32215 7.272 9.718H0.438V13.718H7.272C7.74455 15.1144 8.69801 16.2974 9.96217 17.0558C11.2263 17.8142 12.7189 18.0987 14.1734 17.8583C15.6278 17.618 16.9496 16.8686 17.9026 15.7438C18.8556 14.6191 19.3778 13.1922 19.376 11.718L19.375 11.72Z" fill="white"/>
</svg>
